<svg width="32" height="32" viewBox="0 0 32 32" fill="none" xmlns="http://www.w3.org/2000/svg">
<g clip-path="url(#clip0)">
<path fill-rule="evenodd" clip-rule="evenodd" d="M32 16C32 24.8366 24.8366 32 16 32C7.16344 32 0 24.8366 0 16C0 7.16345 7.16344 7.62939e-06 16 7.62939e-06C24.8366 7.62939e-06 32 7.16345 32 16ZM14.2754 15.7552L9.61248 10.75H22.3828L17.7196 15.7552C17.4975 15.987 17.2308 16.1716 16.9356 16.2979C16.6391 16.4247 16.32 16.4901 15.9975 16.4901C15.675 16.4901 15.3559 16.4247 15.0594 16.2979C14.7642 16.1716 14.4975 15.987 14.2754 15.7552ZM23.25 19.9871V12.0197L20.0598 15.4438L23.25 19.9871ZM18.8137 16.7813L19.0146 16.5656L22.3672 21.34H9.58561L13.0437 16.6336L13.1812 16.7812L13.1812 16.7813L13.1875 16.7879C13.5503 17.1679 13.9864 17.4703 14.4693 17.677C14.9523 17.8836 15.4722 17.9901 15.9975 17.9901C16.5228 17.9901 17.0427 17.8836 17.5257 17.677C18.0086 17.4703 18.4447 17.1679 18.8075 16.7879L18.8075 16.788L18.8137 16.7813ZM8.75 12.0248V19.9439L12.003 15.5166L8.75 12.0248ZM8.74 9.25C7.9171 9.25 7.25 9.9171 7.25 10.74V21.35C7.25 22.1729 7.9171 22.84 8.74 22.84H23.26C24.0829 22.84 24.75 22.1729 24.75 21.35V10.74C24.75 9.9171 24.0829 9.25 23.26 9.25H8.74Z" fill="#4F4F4F"/>
</g>
<defs>
<clipPath id="clip0">
<rect width="32" height="32" fill="white"/>
</clipPath>
</defs>
</svg>
