<svg width="32" height="32" viewBox="0 0 32 32" fill="none" xmlns="http://www.w3.org/2000/svg">
<path fill-rule="evenodd" clip-rule="evenodd" d="M16 0C24.8366 0 32 7.16344 32 16C32 24.8366 24.8366 32 16 32C7.16344 32 0 24.8366 0 16C0 7.16344 7.16344 0 16 0ZM7.82227 13.1083C7.82227 9.76612 10.7285 5.76 16.4944 5.76C21.128 5.76 24.1783 9.01042 24.1778 12.5003C24.1778 17.1145 21.5302 20.561 17.6296 20.561C16.319 20.561 15.0872 19.8757 14.6653 19.0957C14.6653 19.0957 13.9604 21.8049 13.8114 22.3278C13.3149 24.0764 11.9042 25.8256 11.6518 26.1386C11.6373 26.1565 11.6267 26.1697 11.6202 26.1779C11.5362 26.2833 11.35 26.2504 11.3305 26.1106C11.3288 26.0987 11.3262 26.0816 11.3229 26.0595C11.2597 25.642 10.9274 23.4477 11.3676 21.6406C11.6006 20.6854 12.9289 15.2304 12.9289 15.2304C12.9289 15.2304 12.5432 14.4797 12.5432 13.3694C12.5432 11.6263 13.5831 10.3243 14.8809 10.3243C15.9839 10.3243 16.5196 11.1267 16.5196 12.0893C16.5196 12.7765 16.2318 13.6801 15.9288 14.6314C15.757 15.1707 15.5804 15.7253 15.4485 16.2646C15.1446 17.5131 16.0936 18.5315 17.3634 18.5315C19.662 18.5315 21.2102 15.667 21.2102 12.2746C21.2102 9.69721 19.4199 7.76761 16.1609 7.76761C12.4805 7.76761 10.1869 10.4286 10.1869 13.4014C10.1869 14.4266 10.5001 15.1505 10.9886 15.7088C11.2131 15.9667 11.2432 16.0706 11.1621 16.3656C11.133 16.473 11.0859 16.654 11.039 16.8346C10.9909 17.0198 10.9429 17.2046 10.9145 17.3088C10.8339 17.607 10.5845 17.7129 10.3065 17.6018C8.61189 16.9317 7.82227 15.1315 7.82227 13.1083Z" fill="#CB2027"/>
</svg>
