<svg width="32" height="32" viewBox="0 0 32 32" fill="none" xmlns="http://www.w3.org/2000/svg">
<g clip-path="url(#clip0)">
<path fill-rule="evenodd" clip-rule="evenodd" d="M32 16C32 24.8366 24.8366 32 16 32C7.16344 32 0 24.8366 0 16C0 7.16345 7.16344 7.62939e-06 16 7.62939e-06C24.8366 7.62939e-06 32 7.16345 32 16ZM22.5333 10.8667C23.1999 10.8 23.9333 10.6 24.5333 10.2667C24.0666 11.0667 23.4666 11.7333 22.6666 12.4V12.8667C22.6666 17.8667 19.1333 23.6 12.6666 23.6C10.6666 23.6 8.79993 22.9333 7.2666 21.8667C7.59994 21.9333 7.8666 21.9333 8.13327 21.9333C9.73327 21.9333 11.2666 21.3333 12.4666 20.3333C10.9333 20.3333 9.6666 19.2667 9.19993 17.7333C9.39993 17.8 9.6666 17.8 9.8666 17.8C10.1999 17.8 10.5333 17.7333 10.7999 17.6667C9.19993 17.2667 7.99994 15.7333 7.99994 13.9333V13.8667C8.4666 14.1333 8.99993 14.3333 9.59993 14.3333C8.6666 13.6667 8.0666 12.5333 8.0666 11.2C8.0666 10.4667 8.19993 9.8 8.53327 9.26667C10.2666 11.5333 12.8666 13.0667 15.7999 13.2C15.7333 12.9333 15.7333 12.6 15.7333 12.3333C15.7333 10.2 17.3333 8.53333 19.2666 8.53333C20.2666 8.53333 21.1333 9 21.7999 9.73333C22.6666 9.53333 23.3999 9.2 24.0666 8.8C23.7999 9.66667 23.2666 10.4 22.5333 10.8667Z" fill="#00ACED"/>
</g>
<defs>
<clipPath id="clip0">
<rect width="32" height="32" fill="white"/>
</clipPath>
</defs>
</svg>
